<svg t="1680760377767" class="icon" viewBox="0 0 1024 1024" version="1.1" xmlns="http://www.w3.org/2000/svg"
     p-id="15889" width="200" height="200">
    <path d="M512 239.575424c-150.455687 0-272.424576 121.968889-272.424576 272.424576s121.968889 272.424576 272.424576 272.424576 272.424576-121.968889 272.424576-272.424576S662.455687 239.575424 512 239.575424zM679.733189 453.122031 492.176512 640.678708c-4.344958 4.344958-10.035564 6.516414-15.727193 6.516414-5.691629 0-11.383258-2.172479-15.727193-6.516414l-100.838639-100.838639c-8.688893-8.688893-8.688893-22.765493 0-31.455409 8.688893-8.688893 22.765493-8.688893 31.455409 0l85.111446 85.111446L648.278803 421.666622c8.688893-8.688893 22.765493-8.688893 31.455409 0C688.423105 430.356538 688.423105 444.433138 679.733189 453.122031z"
          fill="#e8b5af" p-id="15890" data-spm-anchor-id="a313x.7781069.0.i0" class="selected"></path>
</svg>